<svg width="22" height="22" viewBox="0 0 22 22" fill="none" xmlns="http://www.w3.org/2000/svg">
<path d="M14.92 12.943L11.853 10.643V5.95699C11.8382 5.74164 11.7422 5.53991 11.5844 5.39259C11.4266 5.24527 11.2188 5.16333 11.003 5.16333C10.7871 5.16333 10.5793 5.24527 10.4215 5.39259C10.2637 5.53991 10.1677 5.74164 10.153 5.95699V11.069C10.1528 11.2014 10.1835 11.332 10.2427 11.4504C10.3019 11.5688 10.3879 11.6717 10.494 11.751L13.902 14.307C14.0827 14.4426 14.3099 14.5009 14.5337 14.4691C14.7574 14.4372 14.9593 14.3177 15.095 14.137C15.2306 13.9562 15.2889 13.729 15.257 13.5053C15.2252 13.2815 15.1057 13.0797 14.925 12.944L14.92 12.943Z" fill="#5C5C5C"/>
<path d="M11 0C8.82441 0 6.69767 0.645139 4.88873 1.85383C3.07979 3.06253 1.66989 4.78049 0.83733 6.79048C0.00476617 8.80047 -0.213071 11.0122 0.211367 13.146C0.635804 15.2798 1.68345 17.2398 3.22183 18.7782C4.76021 20.3166 6.72022 21.3642 8.85401 21.7886C10.9878 22.2131 13.1995 21.9952 15.2095 21.1627C17.2195 20.3301 18.9375 18.9202 20.1462 17.1113C21.3549 15.3023 22 13.1756 22 11C21.9968 8.08359 20.8369 5.28755 18.7747 3.22533C16.7125 1.16312 13.9164 0.00317634 11 0V0ZM11 20.3C9.16064 20.3 7.36258 19.7546 5.8332 18.7327C4.30382 17.7108 3.11182 16.2583 2.40793 14.559C1.70403 12.8596 1.51986 10.9897 1.8787 9.18566C2.23754 7.38164 3.12328 5.72453 4.42391 4.42391C5.72454 3.12328 7.38164 2.23754 9.18567 1.8787C10.9897 1.51985 12.8596 1.70403 14.559 2.40792C16.2583 3.11182 17.7108 4.30382 18.7327 5.8332C19.7546 7.36257 20.3 9.16063 20.3 11C20.2982 13.4659 19.3177 15.8304 17.5741 17.574C15.8304 19.3177 13.4659 20.2981 11 20.3Z" fill="#5C5C5C"/>
</svg>
