<svg width="22" height="22" viewBox="0 0 22 22" fill="none" xmlns="http://www.w3.org/2000/svg">
<path d="M21.4071 9.56895L12.4311 0.59395C12.243 0.405879 12.0198 0.256691 11.7741 0.154906C11.5284 0.0531208 11.265 0.000732422 10.9991 0.000732422C10.7331 0.000732422 10.4698 0.0531208 10.2241 0.154906C9.97835 0.256691 9.7551 0.405879 9.56706 0.59395L0.600056 9.56295L0.591056 9.57195C0.313809 9.85012 0.12348 10.2029 0.0432708 10.5874C-0.0369379 10.9719 -0.00356096 11.3714 0.139333 11.7372C0.282226 12.103 0.528463 12.4193 0.848025 12.6476C1.16759 12.8759 1.54667 13.0063 1.93906 13.023C1.96006 13.023 1.98106 13.023 2.00206 13.023H2.36006V19.6229C2.35873 20.252 2.60719 20.8558 3.05085 21.3017C3.4945 21.7476 4.09704 21.9991 4.72606 22.0009H8.23706C8.40812 22.0009 8.57218 21.933 8.69314 21.812C8.8141 21.6911 8.88206 21.527 8.88206 21.3559V16.1779C8.88364 15.8921 8.99816 15.6185 9.20066 15.4167C9.40316 15.215 9.67721 15.1015 9.96306 15.101H12.0341C12.3206 15.1015 12.5952 15.2155 12.7979 15.4182C13.0005 15.6208 13.1145 15.8954 13.1151 16.1819V21.3599C13.1161 21.5303 13.1845 21.6934 13.3054 21.8134C13.4262 21.9335 13.5897 22.001 13.7601 22.0009H17.2711C17.8994 22.0002 18.5017 21.7502 18.946 21.3059C19.3903 20.8616 19.6403 20.2593 19.6411 19.6309V13.0309H19.9731C20.3735 13.0307 20.7648 12.9118 21.0977 12.6893C21.4306 12.4668 21.6901 12.1506 21.8434 11.7808C21.9968 11.4109 22.0371 11.0038 21.9592 10.6111C21.8814 10.2183 21.6889 9.8574 21.4061 9.57395L21.4071 9.56895ZM20.4941 11.521C20.4258 11.5896 20.3446 11.6441 20.2552 11.6811C20.1658 11.7182 20.0699 11.7372 19.9731 11.7369H19.0001C18.9153 11.7368 18.8314 11.7534 18.7531 11.7858C18.6748 11.8181 18.6036 11.8657 18.5437 11.9256C18.4838 11.9855 18.4363 12.0566 18.4039 12.135C18.3715 12.2133 18.3549 12.2972 18.3551 12.3819V19.6309C18.3545 19.9175 18.2405 20.1921 18.0379 20.3947C17.8352 20.5974 17.5606 20.7114 17.2741 20.712H14.4001V16.1779C14.3993 15.5496 14.1493 14.9473 13.705 14.503C13.2607 14.0587 12.6584 13.8087 12.0301 13.808H9.96306C9.33456 13.8085 8.73195 14.0583 8.28744 14.5026C7.84294 14.9469 7.59285 15.5495 7.59206 16.1779V20.7109H4.72606C4.43952 20.7104 4.16487 20.5964 3.96226 20.3937C3.75964 20.1911 3.64558 19.9165 3.64506 19.6299V12.3809C3.64519 12.2962 3.62859 12.2123 3.59623 12.134C3.56386 12.0556 3.51635 11.9845 3.45643 11.9246C3.39651 11.8647 3.32536 11.8171 3.24704 11.7848C3.16873 11.7524 3.0848 11.7358 3.00006 11.7359H2.01006C1.86504 11.7345 1.72371 11.6902 1.60383 11.6086C1.48395 11.5269 1.3909 11.4117 1.33638 11.2773C1.28186 11.1429 1.26831 10.9954 1.29743 10.8534C1.32656 10.7113 1.39706 10.581 1.50006 10.4789L10.4781 1.50095C10.5464 1.43259 10.6275 1.37835 10.7169 1.34135C10.8062 1.30435 10.9019 1.28531 10.9986 1.28531C11.0952 1.28531 11.1909 1.30435 11.2803 1.34135C11.3696 1.37835 11.4507 1.43259 11.5191 1.50095L20.4911 10.4729C20.6283 10.6112 20.7054 10.7981 20.7054 10.9929C20.7054 11.1878 20.6283 11.3747 20.4911 11.5129L20.4941 11.521Z" fill="#E36DA6"/>
</svg>
