<svg width="22" height="22" viewBox="0 0 22 22" fill="none" xmlns="http://www.w3.org/2000/svg">
<path d="M20.092 11.285C20.0483 11.1963 20.0256 11.0988 20.0256 11C20.0256 10.9012 20.0483 10.8037 20.092 10.715L20.913 9.03599C21.1327 8.58939 21.1695 8.07464 21.0154 7.60134C20.8613 7.12804 20.5285 6.7336 20.088 6.50199L18.441 5.62499C18.3535 5.57894 18.2779 5.51343 18.2198 5.4335C18.1617 5.35357 18.1228 5.26136 18.106 5.16399L17.783 3.32399C17.6987 2.83313 17.426 2.39461 17.0231 2.10188C16.6202 1.80916 16.1188 1.68541 15.626 1.75699L13.776 2.01899C13.6782 2.03313 13.5784 2.02461 13.4845 1.9941C13.3905 1.96358 13.3048 1.91188 13.234 1.84299L11.888 0.542993C11.5312 0.195128 11.0527 0.000427246 10.5545 0.000427246C10.0562 0.000427246 9.57768 0.195128 9.22096 0.542993L7.87796 1.84299C7.80713 1.91188 7.72143 1.96358 7.62745 1.9941C7.53348 2.02461 7.43375 2.03313 7.33596 2.01899L5.48596 1.75699C4.9931 1.68541 4.49176 1.80916 4.08883 2.10188C3.68589 2.39461 3.41323 2.83313 3.32896 3.32399L3.00596 5.16399C2.98916 5.26136 2.95022 5.35357 2.89214 5.4335C2.83405 5.51343 2.75838 5.57894 2.67096 5.62499L1.02096 6.50199C0.580038 6.73378 0.247112 7.12865 0.0931792 7.6024C-0.0607536 8.07616 -0.0235121 8.5913 0.196962 9.03799L1.01696 10.717C1.06063 10.8057 1.08334 10.9032 1.08334 11.002C1.08334 11.1008 1.06063 11.1983 1.01696 11.287L0.195962 12.966C-0.0244358 13.4128 -0.0615284 13.928 0.0925965 14.4018C0.246721 14.8756 0.579863 15.2704 1.02096 15.502L2.67096 16.378C2.75838 16.424 2.83405 16.4896 2.89214 16.5695C2.95022 16.6494 2.98916 16.7416 3.00596 16.839L3.32896 18.679C3.40498 19.1232 3.63573 19.5263 3.98036 19.8167C4.32498 20.1072 4.76126 20.2663 5.21196 20.266C5.30396 20.2661 5.39585 20.2598 5.48696 20.247L7.33696 19.985C7.43475 19.9709 7.53448 19.9794 7.62845 20.0099C7.72243 20.0404 7.80814 20.0921 7.87896 20.161L9.22196 21.461C9.57868 21.8089 10.0572 22.0036 10.5555 22.0036C11.0537 22.0036 11.5322 21.8089 11.889 21.461L13.232 20.161C13.3028 20.0921 13.3885 20.0404 13.4825 20.0099C13.5764 19.9794 13.6762 19.9709 13.774 19.985L15.624 20.247C16.1168 20.3186 16.6182 20.1948 17.0211 19.9021C17.424 19.6094 17.6967 19.1709 17.781 18.68L18.104 16.84C18.1208 16.7426 18.1597 16.6504 18.2178 16.5705C18.2759 16.4906 18.3515 16.425 18.439 16.379L20.089 15.503C20.5299 15.2712 20.8628 14.8763 21.0167 14.4026C21.1707 13.9288 21.1334 13.4137 20.913 12.967L20.092 11.285ZM19.492 14.379L17.842 15.255C17.5835 15.3911 17.3599 15.5849 17.1882 15.8212C17.0166 16.0575 16.9015 16.3301 16.852 16.618L16.529 18.458C16.5005 18.6241 16.4082 18.7725 16.2718 18.8715C16.1354 18.9705 15.9657 19.0123 15.799 18.988L13.949 18.726C13.6602 18.684 13.3657 18.7091 13.0883 18.7993C12.8108 18.8894 12.5578 19.0423 12.349 19.246L11.006 20.546C10.8854 20.663 10.724 20.7285 10.556 20.7285C10.3879 20.7285 10.2265 20.663 10.106 20.546L8.76296 19.246C8.40754 18.8992 7.9305 18.7054 7.43396 18.706C7.34263 18.7059 7.2514 18.7123 7.16096 18.725L5.31096 18.987C5.14419 19.0113 4.97451 18.9695 4.83813 18.8705C4.70174 18.7715 4.60946 18.6231 4.58096 18.457L4.25796 16.617C4.20849 16.3291 4.09347 16.0565 3.92181 15.8201C3.75015 15.5838 3.52643 15.3901 3.26796 15.254L1.61796 14.378C1.46871 14.2997 1.35599 14.1661 1.30386 14.0058C1.25174 13.8455 1.26433 13.6711 1.33896 13.52L2.15996 11.841C2.28902 11.5791 2.35614 11.291 2.35614 10.999C2.35614 10.707 2.28902 10.4189 2.15996 10.157L1.34096 8.47899C1.26633 8.32785 1.25374 8.15352 1.30586 7.99322C1.35799 7.83291 1.47071 7.69934 1.61996 7.62099L3.26996 6.74499C3.52839 6.60885 3.75206 6.41513 3.92372 6.1788C4.09537 5.94247 4.21042 5.66985 4.25996 5.38199L4.58296 3.54199C4.61146 3.37588 4.70375 3.22748 4.84013 3.12847C4.97651 3.02945 5.14619 2.98765 5.31296 3.01199L7.16296 3.27399C7.45167 3.3156 7.74607 3.29034 8.02347 3.20019C8.30088 3.11003 8.55388 2.95738 8.76296 2.75399L10.106 1.45399C10.2265 1.33694 10.3879 1.27147 10.556 1.27147C10.724 1.27147 10.8854 1.33694 11.006 1.45399L12.349 2.75399C12.558 2.95738 12.811 3.11003 13.0884 3.20019C13.3659 3.29034 13.6603 3.3156 13.949 3.27399L15.799 3.01199C15.9657 2.98765 16.1354 3.02945 16.2718 3.12847C16.4082 3.22748 16.5005 3.37588 16.529 3.54199L16.852 5.38199C16.9014 5.66988 17.0165 5.94253 17.1881 6.17887C17.3598 6.41521 17.5835 6.60891 17.842 6.74499L19.492 7.62099C19.6412 7.69934 19.7539 7.83291 19.8061 7.99322C19.8582 8.15352 19.8456 8.32785 19.771 8.47899L18.95 10.158C18.821 10.4199 18.7539 10.708 18.7539 11C18.7539 11.292 18.821 11.58 18.95 11.842L19.771 13.521C19.8457 13.6719 19.8586 13.846 19.8069 14.0063C19.7552 14.1666 19.6429 14.3003 19.494 14.379H19.492Z" fill="#5C5C5C"/>
<path d="M15.191 6.36501C15.132 6.30562 15.0619 6.2585 14.9847 6.22633C14.9075 6.19417 14.8246 6.17761 14.741 6.17761C14.6573 6.17761 14.5745 6.19417 14.4973 6.22633C14.42 6.2585 14.3499 6.30562 14.291 6.36501L5.91699 14.739C5.8579 14.7981 5.81102 14.8683 5.77904 14.9455C5.74706 15.0227 5.73059 15.1054 5.73059 15.189C5.73059 15.2726 5.74706 15.3553 5.77904 15.4325C5.81102 15.5098 5.8579 15.5799 5.91699 15.639C5.97609 15.6981 6.04623 15.745 6.12344 15.7769C6.20065 15.8089 6.28342 15.8254 6.36699 15.8254C6.45056 15.8254 6.53331 15.8089 6.61052 15.7769C6.68773 15.745 6.75789 15.6981 6.81699 15.639L15.191 7.265C15.2504 7.20607 15.2975 7.13596 15.3297 7.05873C15.3618 6.9815 15.3784 6.89866 15.3784 6.815C15.3784 6.73134 15.3618 6.64851 15.3297 6.57127C15.2975 6.49404 15.2504 6.42394 15.191 6.36501Z" fill="#5C5C5C"/>
<path d="M8.01693 5.28998C7.55689 5.28998 7.10717 5.4264 6.72466 5.68198C6.34215 5.93757 6.04402 6.30084 5.86797 6.72586C5.69192 7.15088 5.64587 7.61856 5.73561 8.06976C5.82536 8.52096 6.0469 8.93541 6.3722 9.26071C6.69749 9.58601 7.11194 9.80754 7.56314 9.89729C8.01434 9.98703 8.48203 9.94097 8.90705 9.76492C9.33207 9.58887 9.69533 9.29074 9.95092 8.90823C10.2065 8.52572 10.3429 8.07602 10.3429 7.61598C10.3421 6.99933 10.0968 6.40817 9.66077 5.97213C9.22473 5.53609 8.63358 5.29077 8.01693 5.28998ZM8.01693 8.67398C7.80787 8.67398 7.6035 8.61199 7.42968 8.49584C7.25585 8.3797 7.12038 8.21462 7.04038 8.02148C6.96038 7.82834 6.93944 7.6158 6.98023 7.41077C7.02101 7.20573 7.12168 7.01739 7.2695 6.86957C7.41733 6.72174 7.60567 6.62108 7.8107 6.58029C8.01574 6.53951 8.22828 6.56044 8.42142 6.64044C8.61456 6.72044 8.77964 6.85592 8.89579 7.02974C9.01193 7.20356 9.07392 7.40793 9.07392 7.61698C9.07339 7.89715 8.96186 8.1657 8.76375 8.36381C8.56564 8.56192 8.2971 8.67345 8.01693 8.67398Z" fill="#5C5C5C"/>
<path d="M13.092 12.058C12.6319 12.058 12.1822 12.1944 11.7997 12.45C11.4172 12.7056 11.1191 13.0688 10.943 13.4939C10.767 13.9189 10.7209 14.3866 10.8107 14.8378C10.9004 15.289 11.122 15.7034 11.4473 16.0287C11.7726 16.354 12.187 16.5756 12.6382 16.6653C13.0894 16.7551 13.5571 16.709 13.9821 16.5329C14.4071 16.3569 14.7704 16.0588 15.026 15.6763C15.2816 15.2938 15.418 14.844 15.418 14.384C15.4172 13.7674 15.1719 13.1762 14.7358 12.7401C14.2998 12.3041 13.7086 12.0588 13.092 12.058ZM13.092 15.442C12.8829 15.442 12.6786 15.38 12.5047 15.2639C12.3309 15.1477 12.1954 14.9826 12.1154 14.7895C12.0354 14.5963 12.0145 14.3838 12.0553 14.1788C12.0961 13.9738 12.1967 13.7854 12.3446 13.6376C12.4924 13.4897 12.6807 13.3891 12.8858 13.3483C13.0908 13.3075 13.3033 13.3284 13.4965 13.4084C13.6896 13.4884 13.8547 13.6239 13.9708 13.7978C14.087 13.9716 14.149 14.176 14.149 14.385C14.1484 14.6652 14.0369 14.9337 13.8388 15.1318C13.6407 15.3299 13.3721 15.4415 13.092 15.442Z" fill="#5C5C5C"/>
</svg>
