<svg width="22" height="22" viewBox="0 0 22 22" fill="none" xmlns="http://www.w3.org/2000/svg">
<path d="M18.778 14.222C17.6027 13.0418 16.1738 12.1451 14.6 11.6C15.7188 10.8316 16.5625 9.72534 17.0075 8.44307C17.4525 7.1608 17.4756 5.76978 17.0733 4.47347C16.671 3.17715 15.8645 2.04356 14.7718 1.2385C13.679 0.433437 12.3573 -0.000854492 11 -0.000854492C9.6427 -0.000854492 8.32101 0.433437 7.22825 1.2385C6.13549 2.04356 5.32898 3.17715 4.92671 4.47347C4.52443 5.76978 4.54749 7.1608 4.99251 8.44307C5.43753 9.72534 6.28115 10.8316 7.4 11.6C5.23959 12.3509 3.36645 13.7556 2.04045 15.6191C0.714441 17.4827 0.00131323 19.7128 0 22H1.719C1.719 19.5384 2.69687 17.1776 4.43749 15.437C6.17811 13.6964 8.53889 12.7185 11.0005 12.7185C13.4621 12.7185 15.8229 13.6964 17.5635 15.437C19.3041 17.1776 20.282 19.5384 20.282 22H22C22.0039 20.5549 21.7211 19.1233 21.1681 17.7883C20.615 16.4532 19.8027 15.241 18.778 14.222ZM11 11C10.0821 11 9.18481 10.7278 8.4216 10.2178C7.65839 9.70788 7.06354 8.98305 6.71228 8.13502C6.36101 7.28699 6.2691 6.35384 6.44818 5.45357C6.62725 4.5533 7.06926 3.72636 7.71832 3.0773C8.36737 2.42825 9.19432 1.98623 10.0946 1.80716C10.9949 1.62809 11.928 1.71999 12.776 2.07126C13.6241 2.42253 14.3489 3.01737 14.8589 3.78058C15.3688 4.54379 15.641 5.44108 15.641 6.35898C15.6397 7.58945 15.1503 8.76914 14.2802 9.63921C13.4102 10.5093 12.2305 10.9987 11 11Z" fill="#5C5C5C"/>
</svg>
